#!OML:ASF X:\für Bonn\!DataBase\2005_08_12_Daniel\c3d\Daniel.ASF
:FULLY-SPECIFIED
:DEGREES
169
root -3.57012 15.8629 -1.18807 -1.38454 -87.5427 -8.88347
lowerback 35.5391 -3.21653 4.00035
upperback 2.47826 -3.2513 -1.7168
thorax -15.628 -1.88679 -2.53463
lowerneck 4.05723 1.84196 -2.38968
upperneck -0.513194 2.315 -0.545875
head -0.848272 1.16456 0.182972
rclavicle -4.96962e-017 7.95139e-016
rhumerus 66.0388 -11.5155 -137.661
rradius 6.32445
rwrist 102.308
rhand -23.1305 9.26812
rfingers 7.12502
rthumb 3.31709 -20.6858
lclavicle -4.96962e-017 7.95139e-016
lhumerus 60.4183 0.342726 91.8816
lradius 10.611
lwrist -66.9999
lhand -16.0429 2.38584
lfingers 7.12502
lthumb 10.1588 32.1206
rfemur -24.2155 -16.0665 11.2695
rtibia 67.6991
rfoot 347.271 5.61474
rtoes -10.0255
lfemur -566.056 172.698 -191.529
ltibia 66.1298
lfoot -19.1426 -12.5086
ltoes 1.37276
170
root -3.59718 15.9793 -1.18728 -0.22656 -87.5635 -9.87911
lowerback 34.9376 -3.17957 3.99046
upperback 2.38057 -3.21164 -1.69398
thorax -15.498 -1.86445 -2.54182
lowerneck 4.23046 1.85741 -2.42583
upperneck -0.355719 2.32983 -0.469475
head -0.830214 1.16904 0.211239
rclavicle 2.09718e-014 7.95139e-016
rhumerus 65.8241 -11.6068 -137.492
rradius 6.31315
rwrist 102.128
rhand -23.1156 9.37511
rfingers 7.12502
rthumb 3.33144 -20.5786
lclavicle 2.09718e-014 7.95139e-016
lhumerus 60.1305 0.411095 92.041
lradius 10.6317
lwrist -67.1101
lhand -16.0538 2.43436
lfingers 7.12502
lthumb 10.1483 32.1696
rfemur -22.9887 -15.4932 11.5496
rtibia 65.6078
rfoot 346.977 5.05321
rtoes -10.0295
lfemur -564.877 173.349 -191.686
ltibia 64.1917
lfoot -19.3982 -11.7363
ltoes 1.19718
171
root -3.62531 16.0941 -1.18613 1.36648 -87.5797 -11.2922
lowerback 34.2919 -3.15093 3.99809
upperback 2.28858 -3.17614 -1.66145
thorax -15.3394 -1.84449 -2.54729
lowerneck 4.39269 1.8747 -2.50556
upperneck -0.181142 2.34497 -0.378283
head -0.805803 1.17318 0.251398
rclavicle -1.16289e-014 -8.74653e-015
rhumerus 65.5658 -11.7077 -137.304
rradius 6.37338
rwrist 101.943
rhand -23.0992 9.53878
rfingers 7.12502
rthumb 3.34726 -20.4147
lclavicle -1.16289e-014 -8.74653e-015
lhumerus 59.848 0.459324 92.1363
lradius 10.6347
lwrist -67.1146
lhand -16.0833 2.45996
lfingers 7.12502
lthumb 10.1198 32.1966
rfemur -21.7568 -14.9224 11.8564
rtibia 63.4791
rfoot 346.674 4.44568
rtoes -10.07
lfemur -563.704 174.038 -191.83
ltibia 62.2328
lfoot -19.6254 -10.9317
ltoes 0.968674
172
root -3.65441 16.2033 -1.18501 3.62139 -87.6072 -13.397
lowerback 33.6872 -3.12717 4.04038
upperback 2.18695 -3.13542 -1.6448
thorax -15.2075 -1.82528 -2.58948
lowerneck 4.58877 1.8927 -2.48842
upperneck -0.00601832 2.36376 -0.334233
head -0.784948 1.17945 0.260731
rclavicle 9.0447e-015 1.27222e-014
rhumerus 65.2407 -11.8895 -137.12
rradius 6.52459
rwrist 101.834
rhand -23.1281 9.74414
rfingers 7.12502
rthumb 3.31936 -20.2098
lclavicle 9.0447e-015 1.27222e-014
lhumerus 59.559 0.531812 92.27
lradius 10.585
lwrist -67.2273
lhand -16.1212 2.43471
lfingers 7.12502
lthumb 10.0833 32.1731
rfemur -20.4729 -14.3234 12.1786
rtibia 61.3218
rfoot 346.336 3.86944
rtoes -10.118
lfemur -562.508 174.727 -191.944
ltibia 60.2953
lfoot -19.8624 -10.1159
ltoes 0.845418
173
root -3.68403 16.3073 -1.18444 6.06774 -87.6379 -15.6946
lowerback 33.0726 -3.09887 4.07762
upperback 2.08697 -3.09001 -1.61514
thorax -15.0639 -1.8032 -2.61694
lowerneck 4.798 1.92134 -2.54088
upperneck 0.163813 2.39268 -0.245078
head -0.76977 1.19021 0.295043
rclavicle -1.2275e-014 -1.19271e-015
rhumerus 64.8599 -12.1197 -136.89
rradius 6.73802
rwrist 101.783
rhand -23.2088 9.99318
rfingers 7.12502
rthumb 3.24143 -19.9619
lclavicle -1.2275e-014 -1.19271e-015
lhumerus 59.2909 0.616153 92.4216
lradius 10.4824
lwrist -67.3716
lhand -16.2158 2.31174
lfingers 7.12502
lthumb 9.99201 32.0546
rfemur -19.1802 -13.7092 12.5138
rtibia 59.156
rfoot 345.968 3.26563
rtoes -10.1275
lfemur -561.338 175.455 -192.05
ltibia 58.3923
lfoot -20.103 -9.26954
ltoes 0.699319
174
root -3.71473 16.4047 -1.1829 8.86466 -87.6598 -18.332
lowerback 32.3856 -3.06543 4.13725
upperback 1.99391 -3.0331 -1.58465
thorax -14.8774 -1.77694 -2.66277
lowerneck 5.05764 1.93968 -2.56668
upperneck 0.312516 2.4068 -0.166981
head -0.769033 1.19375 0.321368
rclavicle 6.95746e-016 6.36111e-015
rhumerus 64.4634 -12.37 -136.651
rradius 6.99008
rwrist 101.844
rhand -23.3788 10.2114
rfingers 7.12502
rthumb 3.07724 -19.7462
lclavicle 6.95746e-016 6.36111e-015
lhumerus 59.0078 0.713793 92.64
lradius 10.3625
lwrist -67.6108
lhand -16.3165 2.20336
lfingers 7.12502
lthumb 9.89481 31.9508
rfemur -17.9009 -13.0907 12.8572
rtibia 56.998
rfoot 345.553 2.66299
rtoes -10.127
lfemur -560.22 176.219 -192.152
ltibia 56.5558
lfoot -20.3955 -8.38295
ltoes 0.494621
175
root -3.74532 16.4947 -1.18182 11.7066 -87.6614 -21.0425
lowerback 31.7163 -3.04853 4.18686
upperback 1.90609 -3.00151 -1.54859
thorax -14.689 -1.761 -2.68563
lowerneck 5.27498 1.97791 -2.57617
upperneck 0.506202 2.44869 -0.128337
head -0.746517 1.21087 0.332772
rclavicle 7.45443e-016 7.15625e-015
rhumerus 64.0004 -12.6198 -136.405
rradius 7.27881
rwrist 101.993
rhand -23.6534 10.424
rfingers 7.12502
rthumb 2.81206 -19.5372
lclavicle 7.45443e-016 7.15625e-015
lhumerus 58.7395 0.817542 92.7781
lradius 10.2063
lwrist -67.8051
lhand -16.386 2.09532
lfingers 7.12502
lthumb 9.82776 31.846
rfemur -16.5785 -12.46 13.201
rtibia 54.847
rfoot 345.112 2.09169
rtoes -10.0192
lfemur -559.13 177.01 -192.239
ltibia 54.7999
lfoot -20.6867 -7.50689
ltoes 0.423583
176
root -3.7774 16.5801 -1.18115 14.6704 -87.6824 -23.8579
lowerback 31.0336 -3.00765 4.23596
upperback 1.80084 -2.93993 -1.51453
thorax -14.5086 -1.73178 -2.72307
lowerneck 5.47506 1.99728 -2.59398
upperneck 0.74088 2.46533 -0.0669258
head -0.70845 1.21443 0.353403
rclavicle -2.6985e-014 -5.56597e-015
rhumerus 63.5282 -12.9418 -136.129
rradius 7.58224
rwrist 102.255
rhand -23.9955 10.6076
rfingers 7.12502
rthumb 2.48167 -19.3577
lclavicle -2.6985e-014 -5.56597e-015
lhumerus 58.4576 1.00638 93.1353
lradius 10.0369
lwrist -68.3226
lhand -16.4925 1.92773
lfingers 7.12502
lthumb 9.72504 31.6832
rfemur -15.2551 -11.7846 13.5485
rtibia 52.6949
rfoot 344.614 1.52103
rtoes -9.76349
lfemur -558.09 177.841 -192.339
ltibia 53.1215
lfoot -21.0081 -6.55532
ltoes 0.291563
177
root -3.809 16.659 -1.17984 17.2611 -87.6901 -26.2881
lowerback 30.3389 -2.97942 4.28412
upperback 1.69284 -2.89859 -1.49422
thorax -14.3242 -1.71175 -2.76667
lowerneck 5.62077 2.02157 -2.5694
upperneck 0.995456 2.49241 -0.0286813
head -0.654116 1.2233 0.360178
rclavicle -7.30534e-015 1.19271e-015
rhumerus 63.0664 -13.2105 -135.892
rradius 7.87839
rwrist 102.637
rhand -24.3398 10.6957
rfingers 7.12502
rthumb 2.14922 -19.2732
lclavicle -7.30534e-015 1.19271e-015
lhumerus 58.2184 1.22437 93.4967
lradius 9.80115
lwrist -68.8712
lhand -16.6744 1.76354
lfingers 7.12502
lthumb 9.54952 31.5271
rfemur -13.9376 -11.0868 13.8866
rtibia 50.5388
rfoot 344.096 0.966885
rtoes -9.5507
lfemur -557.115 178.687 -192.458
ltibia 51.5119
lfoot -21.3694 -5.59729
ltoes 0.170915
178
root -3.84323 16.733 -1.17887 19.9435 -87.7045 -28.8301
lowerback 29.6268 -2.94405 4.31007
upperback 1.60304 -2.85704 -1.46481
thorax -14.1047 -1.68964 -2.7889
lowerneck 5.65914 2.05204 -2.52025
upperneck 1.33572 2.53223 -0.0159914
head -0.554502 1.23789 0.356031
rclavicle 4.27387e-015 1.19271e-014
rhumerus 62.6814 -13.4071 -135.676
rradius 8.07713
rwrist 102.965
rhand -24.6746 10.6742
rfingers 7.12502
rthumb 1.82579 -19.2977
lclavicle 4.27387e-015 1.19271e-014
lhumerus 58.0606 1.45703 93.864
lradius 9.49121
lwrist -69.4232
lhand -16.8956 1.67381
lfingers 7.12502
lthumb 9.33606 31.4471
rfemur -12.5916 -10.3262 14.2284
rtibia 48.3647
rfoot 343.572 0.373751
rtoes -9.21492
lfemur -556.123 179.57 -192.585
ltibia 49.9451
lfoot -21.7909 -4.60051
ltoes 0.0372965
179
root -3.88112 16.8047 -1.17762 21.8647 -87.7209 -30.6095
lowerback 28.8741 -2.90537 4.3204
upperback 1.51217 -2.8203 -1.44784
thorax -13.8642 -1.66875 -2.81534
lowerneck 5.67709 2.0741 -2.47818
upperneck 1.70711 2.56046 -0.00369797
head -0.442116 1.24621 0.353572
rclavicle 2.38542e-015 -6.75868e-015
rhumerus 62.3902 -13.5352 -135.505
rradius 8.17165
rwrist 103.303
rhand -24.9211 10.5752
rfingers 7.12502
rthumb 1.58781 -19.3986
lclavicle 2.38542e-015 -6.75868e-015
lhumerus 57.9091 1.67149 94.2397
lradius 9.20899
lwrist -70.0095
lhand -17.0841 1.64073
lfingers 7.12502
lthumb 9.15416 31.4221
rfemur -11.242 -9.57177 14.5407
rtibia 46.1737
rfoot 343.061 -0.278683
rtoes -8.90842
lfemur -555.133 180.489 -192.755
ltibia 48.4123
lfoot -22.2609 -3.57007
ltoes -0.173426
180
root -3.92197 16.8727 -1.17687 23.5922 -87.7477 -32.1735
lowerback 28.0357 -2.85587 4.30085
upperback 1.77869 -2.77991 -1.32908
thorax -13.9156 -1.66809 -2.91524
lowerneck 5.65214 2.10049 -2.42785
upperneck 2.10903 2.59582 0.00285397
head -0.313499 1.25783 0.34846
rclavicle -5.96354e-016 7.95139e-016
rhumerus 62.1699 -13.5755 -135.374
rradius 8.16286
rwrist 103.591
rhand -25.073 10.3686
rfingers 7.12502
rthumb 1.44107 -19.6062
lclavicle -5.96354e-016 7.95139e-016
lhumerus 57.7126 1.9034 94.6107
lradius 9.10487
lwrist -70.5406
lhand -17.1796 1.59665
lfingers 7.12502
lthumb 9.06202 31.382
rfemur -9.91247 -8.78233 14.8525
rtibia 43.9628
rfoot 342.559 -0.984324
rtoes -8.7305
lfemur -554.168 181.446 -192.945
ltibia 46.9013
lfoot -22.7192 -2.5369
ltoes -0.223157
